LSLDJ_XZ.mot
version=1
datacolumns 20
datarows 61
range 1.370000 1.970000
inDegrees=yes
endheader
time	pelvis_tilt	pelvis_list	pelvis_rotation	hip_flexion_r	hip_adduction_r	hip_rotation_r	knee_angle_r	ankle_angle_r	hip_flexion_l	hip_adduction_l	hip_rotation_l	knee_angle_l	ankle_angle_l	pelvis_tx	pelvis_ty	pelvis_tz	lumbar_bending	lumbar_rotation	lumbar_extension
1.370000	-19.858048	-4.830801	-2.975937	69.488321	2.782260	-0.813864	-83.168872	14.284023	54.129716	-0.574330	-4.601677	-58.239289	21.491929	0.410369	0.879380	0.304253	0.987106	-2.169251	2.270615
1.380000	-19.806829	-4.537222	-2.937631	69.143180	2.802032	-0.936641	-82.726873	14.434132	53.787481	-0.360331	-4.561613	-57.886260	21.618143	0.411561	0.880450	0.305133	1.139555	-2.225573	2.505880
1.390000	-19.764176	-4.224108	-2.898867	68.854541	2.772767	-1.026491	-82.312321	14.510232	53.409225	-0.113002	-4.442219	-57.396690	21.552106	0.412549	0.882203	0.305996	1.276403	-2.299219	2.733004
1.400000	-19.705718	-3.911512	-2.846042	68.597719	2.697510	-1.084271	-81.917219	14.505282	52.973912	0.154835	-4.281765	-56.776576	21.327232	0.413295	0.884595	0.306849	1.382441	-2.381076	2.920804
1.410000	-19.623727	-3.618193	-2.761354	68.362087	2.576928	-1.123377	-81.534417	14.405884	52.476004	0.436296	-4.109817	-56.029455	20.958809	0.413793	0.887560	0.307708	1.440815	-2.457171	3.059387
1.420000	-19.525587	-3.359035	-2.626974	68.149639	2.410745	-1.160747	-81.157903	14.202090	51.923475	0.728434	-3.945465	-55.157589	20.450307	0.414070	0.891008	0.308596	1.436953	-2.511912	3.158985
1.430000	-19.424104	-3.143608	-2.434254	67.965775	2.203646	-1.206674	-80.784006	13.899999	51.326437	1.026137	-3.803684	-54.163042	19.814902	0.414177	0.894832	0.309537	1.366786	-2.531795	3.240145
1.440000	-19.326787	-2.977065	-2.189729	67.808998	1.969340	-1.263211	-80.412194	13.525462	50.686207	1.317451	-3.700791	-53.048823	19.086417	0.414178	0.898924	0.310544	1.241000	-2.507070	3.321833
1.450000	-19.230467	-2.861670	-1.912902	67.666137	1.728650	-1.329004	-80.045238	13.119223	49.992317	1.584433	-3.652400	-51.820987	18.313058	0.414144	0.903182	0.311611	1.081156	-2.432061	3.413734
1.460000	-19.125078	-2.797026	-1.630047	67.517749	1.504666	-1.403753	-79.688559	12.725607	49.230446	1.807114	-3.665708	-50.491977	17.542935	0.414141	0.907529	0.312719	0.912421	-2.305668	3.517075
1.470000	-18.999663	-2.779301	-1.369667	67.346031	1.319434	-1.488891	-79.348256	12.380986	48.392012	1.966338	-3.736094	-49.083685	16.814491	0.414226	0.911909	0.313840	0.758832	-2.132033	3.627983
1.480000	-18.845802	-2.800726	-1.159108	67.139386	1.191725	-1.584529	-79.028377	12.106049	47.478805	2.045583	-3.848863	-47.627355	16.152462	0.414429	0.916292	0.314951	0.640610	-1.920547	3.739439
1.490000	-18.660041	-2.850894	-1.020090	66.894866	1.134314	-1.686051	-78.728893	11.902408	46.503906	2.032854	-3.982003	-46.158767	15.564481	0.414745	0.920656	0.316039	0.571304	-1.683965	3.843747
1.500000	-18.446214	-2.920121	-0.964252	66.619717	1.151521	-1.784074	-78.445866	11.754197	45.490265	1.922012	-4.110788	-44.710216	15.039793	0.415139	0.924982	0.317105	0.555586	-1.434482	3.936299
1.510000	-18.218119	-3.002079	-0.991258	66.333565	1.238433	-1.867437	-78.174504	11.632496	44.469318	1.713638	-4.213112	-43.303610	14.551943	0.415561	0.929239	0.318160	0.589449	-1.180550	4.020692
1.520000	-17.997619	-3.092485	-1.090204	66.066554	1.381894	-1.927361	-77.914185	11.505695	43.476404	1.416759	-4.275493	-41.948518	14.067949	0.415960	0.933385	0.319221	0.662969	-0.927807	4.109470
1.530000	-17.804089	-3.185490	-1.241582	65.847432	1.561306	-1.961644	-77.671463	11.356985	42.539137	1.051468	-4.299122	-40.644610	13.561896	0.416297	0.937366	0.320309	0.762784	-0.682661	4.215544
1.540000	-17.644374	-3.273456	-1.418091	65.689721	1.749384	-1.975804	-77.456877	11.190425	41.667414	0.648617	-4.297940	-39.385163	13.021490	0.416543	0.941134	0.321447	0.872258	-0.452782	4.343097
1.550000	-17.510292	-3.351197	-1.588144	65.585408	1.916956	-1.978455	-77.277920	11.024021	40.851535	0.242641	-4.290906	-38.159849	12.448807	0.416687	0.944659	0.322653	0.973022	-0.243289	4.485004
1.560000	-17.380085	-3.419678	-1.723648	65.505194	2.041198	-1.974391	-77.134506	10.888739	40.064128	-0.138803	-4.298778	-36.956548	11.863634	0.416724	0.947938	0.323939	1.050018	-0.053836	4.622971
1.570000	-17.227370	-3.484251	-1.807453	65.410256	2.110689	-1.962393	-77.018827	10.819053	39.270445	-0.480345	-4.338343	-35.762731	11.296809	0.416658	0.950987	0.325308	1.096133	0.118882	4.734505
1.580000	-17.037439	-3.548191	-1.837286	65.273878	2.124903	-1.938500	-76.918088	10.828218	38.447423	-0.777448	-4.411607	-34.567965	10.770947	0.416497	0.953830	0.326759	1.114277	0.274811	4.807740
1.590000	-16.815204	-3.609426	-1.825041	65.093201	2.092163	-1.899965	-76.818466	10.899193	37.594586	-1.033458	-4.505359	-33.367899	10.291520	0.416260	0.956491	0.328289	1.116806	0.408402	4.849185
1.600000	-16.579680	-3.664405	-1.790441	64.884070	2.027190	-1.847810	-76.708668	10.996055	36.730681	-1.258341	-4.601166	-32.167717	9.852806	0.415968	0.958983	0.329893	1.120770	0.513997	4.878942
1.610000	-16.351419	-3.713585	-1.751067	64.666592	1.945980	-1.787790	-76.582428	11.083909	35.881800	-1.466431	-4.685528	-30.982685	9.447575	0.415645	0.961312	0.331565	1.139940	0.592503	4.918917
1.620000	-16.139835	-3.763427	-1.715148	64.450002	1.860599	-1.728633	-76.439259	11.149172	35.067172	-1.672760	-4.756989	-29.834928	9.074811	0.415306	0.963478	0.333298	1.179147	0.653652	4.980314
1.630000	-15.942453	-3.823020	-1.682469	64.231288	1.778079	-1.678320	-76.283058	11.196287	34.295140	-1.889662	-4.824838	-28.747380	8.737884	0.414964	0.965480	0.335088	1.235552	0.711898	5.062421
1.640000	-15.752860	-3.898328	-1.649233	64.004088	1.701160	-1.641046	-76.119864	11.226911	33.567601	-2.124090	-4.900173	-27.736981	8.435798	0.414633	0.967321	0.336930	1.303156	0.779342	5.159867
1.650000	-15.560874	-3.990462	-1.609738	63.758235	1.628143	-1.616829	-75.955613	11.236893	32.877665	-2.377032	-4.989371	-26.809779	8.160323	0.414325	0.969008	0.338828	1.374662	0.862643	5.262400
1.660000	-15.353555	-4.097325	-1.556954	63.479442	1.553918	-1.603664	-75.793914	11.221158	32.210177	-2.644930	-5.093114	-25.960062	7.899492	0.414047	0.970553	0.340784	1.442577	0.963824	5.356143
1.670000	-15.127889	-4.214742	-1.484933	63.162056	1.472696	-1.599902	-75.634300	11.164980	31.555878	-2.921128	-5.207553	-25.172839	7.640190	0.413808	0.971970	0.342802	1.501657	1.081074	5.437083
1.680000	-14.895463	-4.338174	-1.389652	62.813768	1.379997	-1.603564	-75.472124	11.044101	30.917686	-3.197427	-5.326279	-24.426929	7.370124	0.413629	0.973274	0.344888	1.549680	1.210320	5.516533
1.690000	-14.670615	-4.464712	-1.267019	62.443925	1.272484	-1.608742	-75.300850	10.842345	30.300396	-3.465659	-5.442950	-23.698669	7.081336	0.413528	0.974484	0.347048	1.585478	1.347246	5.609326
1.700000	-14.460992	-4.592875	-1.111179	62.055397	1.146387	-1.603501	-75.114894	10.560413	29.703567	-3.718071	-5.553009	-22.967316	6.772477	0.413509	0.975620	0.349290	1.606685	1.487310	5.723198
1.710000	-14.268615	-4.721390	-0.915379	61.646753	0.997095	-1.571600	-74.910594	10.208957	29.124279	-3.947871	-5.653181	-22.219365	6.448552	0.413566	0.976701	0.351625	1.609743	1.624859	5.858129
1.720000	-14.093421	-4.849165	-0.673978	61.215134	0.820452	-1.497160	-74.685487	9.800300	28.560546	-4.150756	-5.739301	-21.449333	6.119528	0.413689	0.977742	0.354056	1.591915	1.753600	6.009127
1.730000	-13.933558	-4.976258	-0.382905	60.754962	0.613443	-1.370774	-74.437364	9.345492	28.011012	-4.326145	-5.804565	-20.658554	5.798097	0.413870	0.978751	0.356584	1.552854	1.868571	6.167855
1.740000	-13.783369	-5.104840	-0.038815	60.254793	0.374193	-1.194482	-74.163685	8.855384	27.472976	-4.477863	-5.839905	-19.854118	5.496831	0.414102	0.979726	0.359203	1.494815	1.968724	6.323548
1.750000	-13.632993	-5.239679	0.360998	59.697071	0.103108	-0.982387	-73.861416	8.343284	26.942068	-4.614670	-5.835853	-19.047629	5.225549	0.414383	0.980653	0.361907	1.422176	2.059135	6.465231
1.760000	-13.471016	-5.387608	0.817862	59.062497	-0.195339	-0.754645	-73.527695	7.827638	26.414358	-4.749754	-5.784035	-18.252949	4.989311	0.414710	0.981511	0.364691	1.340324	2.151291	6.584818
1.770000	-13.288097	-5.555505	1.332245	58.336467	-0.513312	-0.527508	-73.161268	7.331227	25.889281	-4.897376	-5.677676	-17.483768	4.787233	0.415082	0.982279	0.367551	1.253341	2.260154	6.678670
1.780000	-13.079886	-5.747307	1.906045	57.514572	-0.843695	-0.306006	-72.763806	6.874543	25.372098	-5.066976	-5.512187	-16.751952	4.612102	0.415491	0.982938	0.370485	1.161239	2.398495	6.747456
1.790000	-12.848019	-5.961559	2.543672	56.604227	-1.184070	-0.083734	-72.339342	6.465772	24.873633	-5.258707	-5.287575	-16.065813	4.451640	0.415926	0.983475	0.373494	1.059585	2.571219	6.795293
1.800000	-12.598599	-6.190896	3.249739	55.621356	-1.536745	0.148174	-71.891166	6.087846	24.406676	-5.463820	-5.013161	-15.428776	4.293127	0.416370	0.983889	0.376578	0.942531	2.772683	6.828727
1.810000	-12.340016	-6.424023	4.024601	54.584680	-1.904390	0.392848	-71.418207	5.698271	23.982455	-5.669318	-4.710469	-14.840019	4.127367	0.416805	0.984186	0.379741	0.807025	2.988497	6.856873
1.820000	-12.080806	-6.648861	4.861073	53.509582	-2.285351	0.651113	-70.913390	5.251018	23.608418	-5.863325	-4.409716	-14.296653	3.949012	0.417219	0.984375	0.382989	0.655423	3.200220	6.891550
1.830000	-11.826712	-6.854016	5.745344	52.402273	-2.674017	0.924945	-70.363227	4.708568	23.286035	-6.036906	-4.142416	-13.796212	3.758714	0.417603	0.984461	0.386327	0.494944	3.389213	6.944509
1.840000	-11.579633	-7.028144	6.661145	51.258279	-3.065468	1.215341	-69.748822	4.039460	23.010961	-6.181925	-3.935155	-13.338246	3.564197	0.417957	0.984447	0.389756	0.335276	3.538104	7.023877
1.850000	-11.340682	-7.159392	7.593499	50.067732	-3.459651	1.524451	-69.049778	3.229805	22.776891	-6.288534	-3.805768	-12.923406	3.373036	0.418283	0.984329	0.393270	0.186810	3.631148	7.133834
1.860000	-11.113158	-7.236752	8.530843	48.821709	-3.861946	1.858101	-68.248405	2.295569	22.578660	-6.345731	-3.761310	-12.550661	3.185297	0.418592	0.984106	0.396859	0.059595	3.655325	7.275941
1.870000	-10.901699	-7.254169	9.466118	47.514177	-4.278949	2.221925	-67.331114	1.274775	22.412020	-6.346289	-3.797039	-12.215595	2.994925	0.418894	0.983778	0.400507	-0.038407	3.603847	7.449632
1.880000	-10.709478	-7.215208	10.397147	46.140866	-4.711942	2.615919	-66.287759	0.211397	22.273002	-6.292713	-3.896132	-11.911787	2.796169	0.419207	0.983348	0.404203	-0.104108	3.480490	7.652551
1.890000	-10.536975	-7.132994	11.326465	44.699486	-5.154156	3.032891	-65.112279	-0.855642	22.159259	-6.197459	-4.030854	-11.634515	2.588489	0.419543	0.982824	0.407940	-0.141654	3.299641	7.881572
1.900000	-10.383693	-7.023378	12.259963	43.192709	-5.595540	3.461630	-63.805446	-1.896747	22.072455	-6.074780	-4.166425	-11.383882	2.377249	0.419907	0.982204	0.411721	-0.161694	3.079489	8.134227
1.910000	-10.250642	-6.896887	13.203348	41.631357	-6.029986	3.891654	-62.377646	-2.892229	22.018900	-5.931726	-4.267553	-11.165313	2.171453	0.420290	0.981481	0.415555	-0.176107	2.833476	8.409201
1.920000	-10.140359	-6.756447	14.157078	40.033827	-6.456691	4.315597	-60.848719	-3.831167	22.006734	-5.767461	-4.305688	-10.987476	1.981453	0.420668	0.980643	0.419453	-0.190435	2.567087	8.704780
1.930000	-10.054975	-6.600509	15.112967	38.421906	-6.875855	4.728215	-59.244122	-4.707464	22.041545	-5.579073	-4.264339	-10.858668	1.817764	0.421010	0.979681	0.423422	-0.198722	2.279994	9.016482
1.940000	-9.994783	-6.426721	16.055886	36.815795	-7.285183	5.123474	-57.589295	-5.514621	22.123835	-5.366204	-4.140415	-10.783414	1.690178	0.421284	0.978596	0.427475	-0.184644	1.969032	9.335732
1.950000	-9.958479	-6.233625	16.970874	35.230766	-7.680867	5.491456	-55.904530	-6.245096	22.250176	-5.131115	-3.941677	-10.760875	1.605520	0.421470	0.977400	0.431632	-0.128778	1.629839	9.650391
1.960000	-9.944639	-6.021424	17.851617	33.675974	-8.060396	5.816763	-54.201510	-6.895087	22.416992	-4.876715	-3.682275	-10.785499	1.563974	0.421556	0.976111	0.435925	-0.017896	1.258191	9.947242
1.970000	-9.953062	-5.793387	18.704637	32.155024	-8.422331	6.079790	-52.482433	-7.468989	22.624340	-4.606612	-3.378780	-10.849389	1.557163	0.421542	0.974752	0.440404	0.149580	0.852531	10.215650
